<svg width="30" height="30" viewBox="0 0 30 30" fill="none" xmlns="http://www.w3.org/2000/svg">
<g id="Group 1000001059">
<g id="Group 1000001058">
<g id="Linkedin">
<g id="Logo">
<path id="Path" d="M22.334 22.0669H19.4215V17.4977C19.4215 16.4082 19.402 15.0056 17.9067 15.0056C16.3897 15.0056 16.1576 16.1926 16.1576 17.4184V22.0666H13.2451V12.6705H16.0411V13.9546H16.0803C16.6496 12.9795 17.712 12.3949 18.839 12.4369C21.7909 12.4369 22.3353 14.3819 22.3353 16.9124L22.334 22.0669Z" fill="black"/>
<path id="Path_2" d="M9.95837 11.3862C9.95819 11.3862 9.9581 11.3862 9.95802 11.3862C9.0308 11.3862 8.26782 10.622 8.26782 9.69316C8.26782 8.76432 9.0308 8 9.95802 8C10.8851 8 11.648 8.76414 11.6482 9.6928C11.6482 9.69289 11.6482 9.69298 11.6482 9.69316C11.6482 10.6218 10.8854 11.3861 9.95837 11.3862Z" fill="black"/>
<path id="Path_3" d="M11.4138 22.0663H8.49829V12.6699H11.4138V22.0663Z" fill="black"/>
</g>
</g>
<rect id="Box" x="1.26782" y="1" width="28.134" height="28.134" stroke="black"/>
</g>
</g>
</svg>
