<svg width="30" height="30" viewBox="0 0 30 30" fill="none" xmlns="http://www.w3.org/2000/svg">
<g id="Group 1000001058">
<g id="logo">
<path id="3" fill-rule="evenodd" clip-rule="evenodd" d="M15.3399 5.68896C12.793 5.68896 12.4736 5.69976 11.4734 5.7454C10.4752 5.79093 9.79348 5.94947 9.19697 6.18132C8.58028 6.42094 8.05729 6.74161 7.53591 7.26296C7.01455 7.78434 6.69389 8.30733 6.45427 8.92402C6.22242 9.52053 6.06388 10.2023 6.01835 11.2004C5.97271 12.2007 5.96191 12.5201 5.96191 15.067C5.96191 17.6139 5.97271 17.9332 6.01835 18.9335C6.06388 19.9317 6.22242 20.6134 6.45427 21.2099C6.69389 21.8266 7.01455 22.3496 7.53591 22.871C8.05729 23.3923 8.58028 23.713 9.19697 23.9527C9.79348 24.1845 10.4752 24.343 11.4734 24.3885C12.4736 24.4342 12.793 24.445 15.3399 24.445C17.8868 24.445 18.2062 24.4342 19.2065 24.3885C20.2046 24.343 20.8864 24.1845 21.4829 23.9527C22.0996 23.713 22.6225 23.3923 23.1439 22.871C23.6653 22.3496 23.9859 21.8266 24.2256 21.2099C24.4574 20.6134 24.616 19.9317 24.6615 18.9335C24.7071 17.9332 24.7179 17.6139 24.7179 15.067C24.7179 12.5201 24.7071 12.2007 24.6615 11.2004C24.616 10.2023 24.4574 9.52053 24.2256 8.92402C23.9859 8.30733 23.6653 7.78434 23.1439 7.26296C22.6225 6.74161 22.0996 6.42094 21.4829 6.18132C20.8864 5.94947 20.2046 5.79093 19.2065 5.7454C18.2062 5.69976 17.8868 5.68896 15.3399 5.68896ZM15.3387 7.37842C17.8427 7.37842 18.1393 7.38799 19.1282 7.4331C20.0425 7.4748 20.5391 7.62757 20.8695 7.756C21.3073 7.92612 21.6197 8.12934 21.9478 8.45753C22.276 8.78567 22.4792 9.09808 22.6494 9.53582C22.7778 9.86627 22.9306 10.3628 22.9723 11.2772C23.0174 12.266 23.0269 12.5627 23.0269 15.0667C23.0269 17.5707 23.0174 17.8673 22.9723 18.8562C22.9306 19.7706 22.7778 20.2671 22.6494 20.5976C22.4792 21.0353 22.276 21.3477 21.9478 21.6759C21.6197 22.004 21.3073 22.2073 20.8695 22.3774C20.5391 22.5058 20.0425 22.6586 19.1282 22.7003C18.1395 22.7454 17.8429 22.755 15.3387 22.755C12.8345 22.755 12.5379 22.7454 11.5491 22.7003C10.6348 22.6586 10.1382 22.5058 9.80779 22.3774C9.37005 22.2073 9.05765 22.004 8.7295 21.6759C8.40135 21.3477 8.1981 21.0353 8.02797 20.5976C7.89954 20.2671 7.74677 19.7706 7.70508 18.8562C7.65996 17.8673 7.65039 17.5707 7.65039 15.0667C7.65039 12.5627 7.65996 12.266 7.70508 11.2772C7.74677 10.3628 7.89954 9.86627 8.02797 9.53582C8.1981 9.09808 8.40131 8.78567 8.7295 8.45753C9.05765 8.12934 9.37005 7.92612 9.80779 7.756C10.1382 7.62757 10.6348 7.4748 11.5491 7.4331C12.538 7.38799 12.8346 7.37842 15.3387 7.37842Z" fill="black"/>
<path id="2" fill-rule="evenodd" clip-rule="evenodd" d="M15.3399 18.1928C13.6134 18.1928 12.2139 16.7933 12.2139 15.0668C12.2139 13.3404 13.6134 11.9408 15.3399 11.9408C17.0663 11.9408 18.4659 13.3404 18.4659 15.0668C18.4659 16.7933 17.0663 18.1928 15.3399 18.1928ZM15.3402 10.2509C12.6805 10.2509 10.5244 12.4069 10.5244 15.0666C10.5244 17.7263 12.6805 19.8823 15.3402 19.8823C17.9998 19.8823 20.1559 17.7263 20.1559 15.0666C20.1559 12.4069 17.9998 10.2509 15.3402 10.2509Z" fill="black"/>
<path id="1" fill-rule="evenodd" clip-rule="evenodd" d="M21.4705 10.0609C21.4705 10.6825 20.9666 11.1863 20.3451 11.1863C19.7236 11.1863 19.2197 10.6825 19.2197 10.0609C19.2197 9.4394 19.7236 8.93555 20.3451 8.93555C20.9666 8.93555 21.4705 9.4394 21.4705 10.0609Z" fill="black"/>
</g>
<rect id="Box" x="1.13379" y="1" width="28.134" height="28.134" stroke="black"/>
</g>
</svg>
