<svg width="16" height="17" viewBox="0 0 16 17" fill="none" xmlns="http://www.w3.org/2000/svg">
<g id="share-06">
<path id="Icon" d="M13.8609 8.90493C14.0237 8.76543 14.105 8.69568 14.1348 8.61268C14.161 8.53984 14.161 8.46015 14.1348 8.3873C14.105 8.3043 14.0237 8.23455 13.8609 8.09506L8.21375 3.25464C7.9336 3.01451 7.79353 2.89444 7.67493 2.8915C7.57186 2.88895 7.47341 2.93423 7.40828 3.01414C7.33333 3.1061 7.33333 3.29059 7.33333 3.65958V6.52308C5.91021 6.77205 4.60773 7.49316 3.63981 8.5759C2.58455 9.75633 2.00082 11.284 2 12.8673V13.2753C2.69956 12.4326 3.573 11.751 4.56051 11.2773C5.43113 10.8596 6.37228 10.6122 7.33333 10.547V13.3404C7.33333 13.7094 7.33333 13.8939 7.40828 13.9858C7.47341 14.0658 7.57186 14.111 7.67493 14.1085C7.79353 14.1055 7.9336 13.9855 8.21375 13.7453L13.8609 8.90493Z" stroke="#F36122" stroke-linecap="round" stroke-linejoin="round"/>
</g>
</svg>
