<svg width="20" height="20" viewBox="0 0 20 20" fill="none" xmlns="http://www.w3.org/2000/svg">
<g id="logo">
<path id="3" fill-rule="evenodd" clip-rule="evenodd" d="M10.3397 0.688965C7.79276 0.688965 7.4734 0.69976 6.47313 0.7454C5.47496 0.790927 4.79324 0.949473 4.19672 1.18132C3.58004 1.42094 3.05705 1.74161 2.53566 2.26296C2.01431 2.78434 1.69365 3.30733 1.45402 3.92402C1.22218 4.52053 1.06363 5.20225 1.0181 6.20043C0.972465 7.20069 0.96167 7.52006 0.96167 10.067C0.96167 12.6139 0.972465 12.9332 1.0181 13.9335C1.06363 14.9317 1.22218 15.6134 1.45402 16.2099C1.69365 16.8266 2.01431 17.3496 2.53566 17.871C3.05705 18.3923 3.58004 18.713 4.19672 18.9527C4.79324 19.1845 5.47496 19.343 6.47313 19.3885C7.4734 19.4342 7.79276 19.445 10.3397 19.445C12.8866 19.445 13.2059 19.4342 14.2062 19.3885C15.2044 19.343 15.8861 19.1845 16.4826 18.9527C17.0993 18.713 17.6223 18.3923 18.1437 17.871C18.665 17.3496 18.9857 16.8266 19.2254 16.2099C19.4572 15.6134 19.6157 14.9317 19.6612 13.9335C19.7069 12.9332 19.7177 12.6139 19.7177 10.067C19.7177 7.52006 19.7069 7.20069 19.6612 6.20043C19.6157 5.20225 19.4572 4.52053 19.2254 3.92402C18.9857 3.30733 18.665 2.78434 18.1437 2.26296C17.6223 1.74161 17.0993 1.42094 16.4826 1.18132C15.8861 0.949473 15.2044 0.790927 14.2062 0.7454C13.2059 0.69976 12.8866 0.688965 10.3397 0.688965ZM10.3384 2.37842C12.8425 2.37842 13.1391 2.38799 14.1279 2.4331C15.0423 2.4748 15.5388 2.62757 15.8693 2.756C16.307 2.92612 16.6194 3.12934 16.9476 3.45753C17.2758 3.78567 17.479 4.09808 17.6491 4.53582C17.7775 4.86627 17.9303 5.36283 17.972 6.27718C18.0171 7.26605 18.0267 7.56267 18.0267 10.0667C18.0267 12.5707 18.0171 12.8673 17.972 13.8562C17.9303 14.7706 17.7775 15.2671 17.6491 15.5976C17.479 16.0353 17.2758 16.3477 16.9476 16.6759C16.6194 17.004 16.307 17.2073 15.8693 17.3774C15.5388 17.5058 15.0423 17.6586 14.1279 17.7003C13.1392 17.7454 12.8426 17.755 10.3384 17.755C7.83421 17.755 7.53767 17.7454 6.5489 17.7003C5.63456 17.6586 5.138 17.5058 4.80754 17.3774C4.3698 17.2073 4.0574 17.004 3.72926 16.6759C3.40111 16.3477 3.19785 16.0353 3.02773 15.5976C2.8993 15.2671 2.74652 14.7706 2.70483 13.8562C2.65971 12.8673 2.65015 12.5707 2.65015 10.0667C2.65015 7.56267 2.65971 7.26605 2.70483 6.27718C2.74652 5.36283 2.8993 4.86627 3.02773 4.53582C3.19785 4.09808 3.40107 3.78567 3.72926 3.45753C4.0574 3.12934 4.3698 2.92612 4.80754 2.756C5.138 2.62757 5.63456 2.4748 6.5489 2.4331C7.53778 2.38799 7.83439 2.37842 10.3384 2.37842Z" fill="black"/>
<path id="2" fill-rule="evenodd" clip-rule="evenodd" d="M10.3395 13.1929C8.61305 13.1929 7.2135 11.7934 7.2135 10.0669C7.2135 8.34047 8.61305 6.94092 10.3395 6.94092C12.066 6.94092 13.4655 8.34047 13.4655 10.0669C13.4655 11.7934 12.066 13.1929 10.3395 13.1929ZM10.3398 5.25098C7.68011 5.25098 5.52405 7.40703 5.52405 10.0667C5.52405 12.7264 7.68011 14.8824 10.3398 14.8824C12.9994 14.8824 15.1555 12.7264 15.1555 10.0667C15.1555 7.40703 12.9994 5.25098 10.3398 5.25098Z" fill="black"/>
<path id="1" fill-rule="evenodd" clip-rule="evenodd" d="M16.4702 5.06093C16.4702 5.68245 15.9664 6.18627 15.3448 6.18627C14.7233 6.18627 14.2195 5.68245 14.2195 5.06093C14.2195 4.4394 14.7233 3.93555 15.3448 3.93555C15.9664 3.93555 16.4702 4.4394 16.4702 5.06093Z" fill="black"/>
</g>
</svg>
