<svg width="15" height="15" viewBox="0 0 15 15" fill="none" xmlns="http://www.w3.org/2000/svg">
<g id="Linkedin">
<g id="Logo">
<path id="Path" d="M14.6863 14.514H11.7738V9.94483C11.7738 8.85526 11.7543 7.45266 10.259 7.45266C8.74199 7.45266 8.50988 8.63974 8.50988 9.86548V14.5136H5.59741V5.11761H8.39339V6.40166H8.4326C9.00189 5.42658 10.0643 4.84203 11.1913 4.88395C14.1432 4.88395 14.6876 6.829 14.6876 9.35949L14.6863 14.514Z" fill="black"/>
<path id="Path_2" d="M2.31066 3.83349C2.31049 3.83349 2.3104 3.83349 2.31031 3.83349C1.3831 3.83349 0.620117 3.06926 0.620117 2.14042C0.620117 1.21158 1.3831 0.447266 2.31031 0.447266C3.23744 0.447266 4.00033 1.21141 4.0005 2.14007C4.0005 2.14016 4.0005 2.14025 4.0005 2.14042C4.0005 3.06909 3.2377 3.8334 2.31066 3.83349Z" fill="black"/>
<path id="Path_3" d="M3.76613 14.5136H0.850586V5.11719H3.76613V14.5136Z" fill="black"/>
</g>
</g>
</svg>
