<svg width="206" height="36" viewBox="0 0 206 36" fill="none" xmlns="http://www.w3.org/2000/svg">
<path d="M197.235 32.3813H195.45V20.7476H198.574L203.976 30.7398H204.183V20.7476H206V32.3813H202.845L197.442 22.389H197.235V32.3813Z" fill="#0D0D0D"/>
<path d="M187 32.6681C182.824 32.6681 180.928 29.2736 180.928 26.7078V26.3572C180.928 23.5524 182.92 20.4128 187 20.4128C191.064 20.4128 193.072 23.5524 193.072 26.3572V26.7078C193.072 29.2736 191.175 32.6681 187 32.6681ZM187 30.8991C189.55 30.8991 191.127 28.8592 191.127 26.5484C191.127 24.1101 189.55 22.1818 187 22.1818C184.45 22.1818 182.872 24.1101 182.872 26.5484C182.872 28.8592 184.45 30.8991 187 30.8991Z" fill="#0D0D0D"/>
<path d="M178.501 32.3813H176.588V20.7476H178.501V32.3813Z" fill="#0D0D0D"/>
<path d="M171.161 32.3813H169.249V22.4368H165.806V20.7476H174.619V22.4368H171.161V32.3813Z" fill="#0D0D0D"/>
<path d="M156.435 32.3813H154.522L158.602 20.7476H161.773L165.981 32.3813H164.004L162.841 29.0983H157.566L156.435 32.3813ZM158.14 27.4409H162.251L160.451 22.389H159.877L158.14 27.4409Z" fill="#0D0D0D"/>
<path d="M142.546 32.3813H140.792V20.7476H143.374L146.562 28.0943H146.832L149.988 20.7476H152.601V32.3813H150.705V22.9309L147.677 29.9908H145.573L142.546 22.9946V32.3813Z" fill="#0D0D0D"/>
<path d="M131.39 32.3811H129.478V20.6677H133.542C136.219 20.6677 137.94 21.847 137.94 24.381V24.6359C137.94 26.4208 137.08 27.5205 135.645 28.0145L138.897 32.3811H136.618L133.685 28.3332C133.637 28.3332 133.59 28.3332 133.542 28.3332H131.39V32.3811ZM133.797 22.3251H131.39V26.7236H133.797C135.151 26.7236 135.996 25.8152 135.996 24.5244C135.996 23.2495 135.151 22.3251 133.797 22.3251Z" fill="#0D0D0D"/>
<path d="M121.028 32.6681C116.853 32.6681 114.956 29.2736 114.956 26.7078V26.3572C114.956 23.5524 116.948 20.4128 121.028 20.4128C125.092 20.4128 127.1 23.5524 127.1 26.3572V26.7078C127.1 29.2736 125.203 32.6681 121.028 32.6681ZM121.028 30.8991C123.578 30.8991 125.155 28.8592 125.155 26.5484C125.155 24.1101 123.578 22.1818 121.028 22.1818C118.478 22.1818 116.9 24.1101 116.9 26.5484C116.9 28.8592 118.478 30.8991 121.028 30.8991Z" fill="#0D0D0D"/>
<path d="M108.746 32.3813H106.834V20.7476H113.495V22.405H108.746V25.7038H113.256V27.3612H108.746V32.3813Z" fill="#0D0D0D"/>
<path d="M99.8435 32.6681C96.8474 32.6681 95.1741 31.0904 95.1741 28.9071H97.0546C97.0546 29.9111 97.7877 30.9788 99.8435 30.9788C101.724 30.9788 102.601 30.0864 102.601 29.0027C102.601 28.1102 101.836 27.5206 100.306 27.3931L99.1423 27.2815C97.0068 27.1062 95.6203 25.895 95.6203 23.9986C95.6203 21.8471 97.2777 20.4128 99.7798 20.4128C102.314 20.4128 103.971 21.8631 103.971 24.0942H102.091C102.091 23.0743 101.373 22.1021 99.7798 22.1021C98.2339 22.1021 97.5008 23.0105 97.5008 23.9986C97.5008 24.7954 98.0905 25.4647 99.3176 25.5763L100.465 25.6719C102.903 25.8791 104.497 27.0425 104.497 29.0027C104.497 31.186 102.648 32.6681 99.8435 32.6681Z" fill="#0D0D0D"/>
<path d="M84.0759 32.3813H82.291V20.7476H85.4146L90.8171 30.7398H91.0243V20.7476H92.841V32.3813H89.6856L84.2831 22.389H84.0759V32.3813Z" fill="#0D0D0D"/>
<path d="M70.8221 32.3813H68.9097L72.9894 20.7476H76.1608L80.3681 32.3813H78.3919L77.2286 29.0983H71.9536L70.8221 32.3813ZM72.5273 27.4409H76.6389L74.8381 22.389H74.2644L72.5273 27.4409Z" fill="#0D0D0D"/>
<path d="M60.7029 32.3811H58.7905V20.6677H62.8544C65.5317 20.6677 67.2529 21.847 67.2529 24.381V24.6359C67.2529 26.4208 66.3923 27.5205 64.958 28.0145L68.2091 32.3811H65.9301L62.9978 28.3332C62.95 28.3332 62.9022 28.3332 62.8544 28.3332H60.7029V32.3811ZM63.1093 22.3251H60.7029V26.7236H63.1093C64.464 26.7236 65.3086 25.8152 65.3086 24.5244C65.3086 23.2495 64.464 22.3251 63.1093 22.3251Z" fill="#0D0D0D"/>
<path d="M53.395 32.3813H51.4826V22.4368H48.0403V20.7476H56.8532V22.4368H53.395V32.3813Z" fill="#0D0D0D"/>
<path d="M143.701 15.8654H141.789V4.23169H148.45V5.8891H143.701V9.18797H148.211V10.8454H143.701V15.8654Z" fill="#0D0D0D"/>
<path d="M133.338 16.1522C129.163 16.1522 127.266 12.7577 127.266 10.1919V9.84133C127.266 7.03648 129.258 3.89697 133.338 3.89697C137.402 3.89697 139.41 7.03648 139.41 9.84133V10.1919C139.41 12.7577 137.514 16.1522 133.338 16.1522ZM133.338 14.3833C135.888 14.3833 137.466 12.3434 137.466 10.0326C137.466 7.59426 135.888 5.66594 133.338 5.66594C130.788 5.66594 129.211 7.59426 129.211 10.0326C129.211 12.3434 130.788 14.3833 133.338 14.3833Z" fill="#0D0D0D"/>
<path d="M122.494 15.8654H115.72V4.23169H117.633V14.1602H122.494V15.8654Z" fill="#0D0D0D"/>
<path d="M104.252 15.8654H102.339L106.419 4.23169H109.591L113.798 15.8654H111.822L110.658 12.5825H105.383L104.252 15.8654ZM105.957 10.9251H110.069L108.268 5.87316H107.694L105.957 10.9251Z" fill="#0D0D0D"/>
<path d="M98.6446 15.8654H95.4414L91.5847 4.23169H93.5449L96.78 14.2239H97.3538L100.334 4.23169H102.246L98.6446 15.8654Z" fill="#0D0D0D"/>
<path d="M89.6355 15.8654H87.7231V4.23169H89.6355V15.8654Z" fill="#0D0D0D"/>
<path d="M82.2956 15.8654H80.3832V5.92097H76.9409V4.23169H85.7539V5.92097H82.2956V15.8654Z" fill="#0D0D0D"/>
<path d="M71.4097 16.1522C68.4136 16.1522 66.7402 14.5745 66.7402 12.3912H68.6208C68.6208 13.3952 69.3538 14.4629 71.4097 14.4629C73.2902 14.4629 74.1667 13.5705 74.1667 12.4868C74.1667 11.5944 73.4017 11.0047 71.8718 10.8772L70.7084 10.7656C68.5729 10.5903 67.1865 9.37916 67.1865 7.48271C67.1865 5.33127 68.8439 3.89697 71.3459 3.89697C73.8798 3.89697 75.5372 5.3472 75.5372 7.57833H73.6567C73.6567 6.55839 72.9396 5.58625 71.3459 5.58625C69.8001 5.58625 69.067 6.49464 69.067 7.48271C69.067 8.27954 69.6566 8.94888 70.8838 9.06043L72.0312 9.15605C74.4695 9.36323 76.0631 10.5266 76.0631 12.4868C76.0631 14.6701 74.2145 16.1522 71.4097 16.1522Z" fill="#0D0D0D"/>
<path d="M65.1496 15.8654H58.1216V4.23169H65.0062V5.8891H60.018V9.12423H64.7034V10.7816H60.018V14.208H65.1496V15.8654Z" fill="#0D0D0D"/>
<path d="M51.116 15.8654H49.2036V4.23169H55.8651V5.8891H51.116V9.18797H55.6261V10.8454H51.116V15.8654Z" fill="#0D0D0D"/>
<path d="M21.7129 22.4424H13.4272V35.8695H21.7129V22.4424Z" fill="#FF964E"/>
<path d="M13.4271 14.1567H0V22.4424H13.4271V14.1567Z" fill="#FF964E"/>
<path d="M35.1512 14.1566V22.4422H21.7241V14.1566H13.4385V0.729492H21.7241V8.29902L29.0419 0.98125L34.8995 6.83883L27.5817 14.1566H35.1512Z" fill="#F36122"/>
</svg>
