<svg width="16" height="16" viewBox="0 0 16 16" fill="none" xmlns="http://www.w3.org/2000/svg">
<g id="mail">
<path id="Icon" d="M2 5.33337L5.63328 7.75556C6.48863 8.32579 6.91631 8.61091 7.37856 8.72169C7.78707 8.81958 8.21293 8.81958 8.62144 8.72169C9.08369 8.61091 9.51137 8.3258 10.3667 7.75556L14 5.33337M4.13333 12.6667H11.8667C12.6134 12.6667 12.9868 12.6667 13.272 12.5214C13.5229 12.3936 13.7268 12.1896 13.8547 11.9387C14 11.6535 14 11.2801 14 10.5334V5.46671C14 4.71997 14 4.3466 13.8547 4.06139C13.7268 3.8105 13.5229 3.60653 13.272 3.4787C12.9868 3.33337 12.6134 3.33337 11.8667 3.33337H4.13333C3.3866 3.33337 3.01323 3.33337 2.72801 3.4787C2.47713 3.60653 2.27316 3.8105 2.14532 4.06139C2 4.3466 2 4.71997 2 5.46671V10.5334C2 11.2801 2 11.6535 2.14532 11.9387C2.27316 12.1896 2.47713 12.3936 2.72801 12.5214C3.01323 12.6667 3.3866 12.6667 4.13333 12.6667Z" stroke="white" stroke-linecap="round" stroke-linejoin="round"/>
</g>
</svg>
