<svg width="19" height="18" viewBox="0 0 19 18" fill="none" xmlns="http://www.w3.org/2000/svg">
<g id="eye">
<g id="Icon">
<path d="M1.88247 9.53488C1.78033 9.37315 1.72926 9.29229 1.70068 9.16756C1.6792 9.07387 1.6792 8.92613 1.70068 8.83244C1.72926 8.70771 1.78033 8.62685 1.88247 8.46512C2.72653 7.12863 5.23893 3.75 9.06769 3.75C12.8964 3.75 15.4088 7.12863 16.2529 8.46512C16.355 8.62685 16.4061 8.70771 16.4347 8.83244C16.4562 8.92613 16.4562 9.07387 16.4347 9.16756C16.4061 9.29229 16.355 9.37315 16.2529 9.53488C15.4088 10.8714 12.8964 14.25 9.06769 14.25C5.23893 14.25 2.72653 10.8714 1.88247 9.53488Z" stroke="#F36122" stroke-linecap="round" stroke-linejoin="round"/>
<path d="M9.06769 11.25C10.3103 11.25 11.3177 10.2426 11.3177 9C11.3177 7.75736 10.3103 6.75 9.06769 6.75C7.82504 6.75 6.81769 7.75736 6.81769 9C6.81769 10.2426 7.82504 11.25 9.06769 11.25Z" stroke="#F36122" stroke-linecap="round" stroke-linejoin="round"/>
</g>
</g>
</svg>
