<svg width="19" height="18" viewBox="0 0 19 18" fill="none" xmlns="http://www.w3.org/2000/svg">
<g id="share-06">
<path id="Icon" d="M15.6609 9.45553C15.844 9.29859 15.9355 9.22013 15.9691 9.12675C15.9985 9.0448 15.9985 8.95515 15.9691 8.8732C15.9355 8.77982 15.844 8.70136 15.6609 8.54442L9.30786 3.09895C8.99269 2.82881 8.8351 2.69373 8.70168 2.69042C8.58573 2.68755 8.47497 2.73849 8.4017 2.8284C8.31738 2.93185 8.31738 3.1394 8.31738 3.55451V6.77595C6.71637 7.05604 5.25108 7.86729 4.16216 9.08537C2.975 10.4134 2.31831 12.1319 2.31738 13.9132V14.3722C3.10439 13.4241 4.08701 12.6574 5.19795 12.1244C6.17741 11.6545 7.23619 11.3762 8.31738 11.3029V14.4454C8.31738 14.8605 8.31738 15.0681 8.4017 15.1716C8.47497 15.2615 8.58573 15.3124 8.70168 15.3095C8.8351 15.3062 8.99269 15.1711 9.30786 14.901L15.6609 9.45553Z" stroke="#F36122" stroke-linecap="round" stroke-linejoin="round"/>
</g>
</svg>
